<mxfile host="app.diagrams.net" agent="Mozilla/5.0 (Windows NT 10.0; Win64; x64; rv:129.0) Gecko/20100101 Firefox/129.0" version="24.7.7">
  <diagram name="Page-1" id="-sziISOhZBCgW68WRiRN">
    <mxGraphModel dx="2440" dy="1311" grid="1" gridSize="10" guides="1" tooltips="1" connect="1" arrows="1" fold="1" page="1" pageScale="1" pageWidth="1169" pageHeight="827" math="0" shadow="0">
      <root>
        <mxCell id="0" />
        <mxCell id="1" parent="0" />
        <mxCell id="NcvXT8SLPfawrKJ4mpWX-1" value="Finger Hardware" style="rounded=1;whiteSpace=wrap;html=1;fillColor=none;dashed=1;dashPattern=12 12;spacingTop=-500;spacingRight=0;spacingLeft=400;fontColor=#000000;" vertex="1" parent="1">
          <mxGeometry x="305" y="238" width="560" height="420" as="geometry" />
        </mxCell>
        <mxCell id="NcvXT8SLPfawrKJ4mpWX-2" value="Breakout Sensor Board" style="rounded=1;whiteSpace=wrap;html=1;fillColor=none;dashed=1;dashPattern=12 12;spacingTop=-300;spacingRight=0;spacingLeft=400;fontColor=#000000;" vertex="1" parent="1">
          <mxGeometry x="325" y="388" width="510" height="233" as="geometry" />
        </mxCell>
        <mxCell id="NcvXT8SLPfawrKJ4mpWX-3" style="edgeStyle=orthogonalEdgeStyle;rounded=0;orthogonalLoop=1;jettySize=auto;html=1;entryX=0.5;entryY=1;entryDx=0;entryDy=0;exitX=0;exitY=0.5;exitDx=0;exitDy=0;fontColor=#000000;" edge="1" parent="1" source="NcvXT8SLPfawrKJ4mpWX-8" target="NcvXT8SLPfawrKJ4mpWX-17">
          <mxGeometry relative="1" as="geometry">
            <mxPoint x="745" y="548" as="targetPoint" />
            <mxPoint x="335" y="338" as="sourcePoint" />
            <Array as="points">
              <mxPoint x="355" y="308" />
              <mxPoint x="355" y="608" />
              <mxPoint x="765" y="608" />
            </Array>
          </mxGeometry>
        </mxCell>
        <mxCell id="NcvXT8SLPfawrKJ4mpWX-4" value="&lt;div&gt;3V3&lt;/div&gt;" style="edgeLabel;html=1;align=center;verticalAlign=middle;resizable=0;points=[];fontColor=#000000;" vertex="1" connectable="0" parent="NcvXT8SLPfawrKJ4mpWX-3">
          <mxGeometry x="-0.5422" y="2" relative="1" as="geometry">
            <mxPoint x="-22" as="offset" />
          </mxGeometry>
        </mxCell>
        <mxCell id="NcvXT8SLPfawrKJ4mpWX-5" style="edgeStyle=orthogonalEdgeStyle;rounded=0;orthogonalLoop=1;jettySize=auto;html=1;entryX=0.5;entryY=1;entryDx=0;entryDy=0;fontColor=#000000;" edge="1" parent="1" source="NcvXT8SLPfawrKJ4mpWX-7" target="NcvXT8SLPfawrKJ4mpWX-11">
          <mxGeometry relative="1" as="geometry" />
        </mxCell>
        <mxCell id="NcvXT8SLPfawrKJ4mpWX-6" value="I2C" style="edgeLabel;html=1;align=center;verticalAlign=middle;resizable=0;points=[];fontColor=#000000;" vertex="1" connectable="0" parent="NcvXT8SLPfawrKJ4mpWX-5">
          <mxGeometry x="-0.0138" y="-1" relative="1" as="geometry">
            <mxPoint x="19" as="offset" />
          </mxGeometry>
        </mxCell>
        <mxCell id="NcvXT8SLPfawrKJ4mpWX-7" value="&lt;div&gt;Oximetry Sensor&lt;/div&gt;" style="rounded=1;whiteSpace=wrap;html=1;fontColor=#000000;" vertex="1" parent="1">
          <mxGeometry x="385" y="488" width="120" height="60" as="geometry" />
        </mxCell>
        <mxCell id="NcvXT8SLPfawrKJ4mpWX-8" value="&lt;div&gt;Microcontroller Dev Board&lt;br&gt;&lt;/div&gt;" style="rounded=1;whiteSpace=wrap;html=1;fontColor=#000000;" vertex="1" parent="1">
          <mxGeometry x="545" y="248" width="120" height="120" as="geometry" />
        </mxCell>
        <mxCell id="NcvXT8SLPfawrKJ4mpWX-9" style="edgeStyle=orthogonalEdgeStyle;rounded=0;orthogonalLoop=1;jettySize=auto;html=1;entryX=0.5;entryY=1;entryDx=0;entryDy=0;fontColor=#000000;" edge="1" parent="1" target="NcvXT8SLPfawrKJ4mpWX-8">
          <mxGeometry relative="1" as="geometry">
            <Array as="points">
              <mxPoint x="605" y="428" />
            </Array>
            <mxPoint x="505" y="428" as="sourcePoint" />
            <mxPoint x="605" y="428" as="targetPoint" />
          </mxGeometry>
        </mxCell>
        <mxCell id="NcvXT8SLPfawrKJ4mpWX-10" value="&lt;div&gt;I2C&lt;/div&gt;" style="edgeLabel;html=1;align=center;verticalAlign=middle;resizable=0;points=[];fontColor=#000000;" vertex="1" connectable="0" parent="NcvXT8SLPfawrKJ4mpWX-9">
          <mxGeometry x="-0.1782" y="-1" relative="1" as="geometry">
            <mxPoint x="-11" y="-23" as="offset" />
          </mxGeometry>
        </mxCell>
        <mxCell id="NcvXT8SLPfawrKJ4mpWX-11" value="Biometric Sensor Hub" style="rounded=1;whiteSpace=wrap;html=1;fontColor=#000000;" vertex="1" parent="1">
          <mxGeometry x="385" y="398" width="120" height="60" as="geometry" />
        </mxCell>
        <mxCell id="NcvXT8SLPfawrKJ4mpWX-12" style="edgeStyle=orthogonalEdgeStyle;rounded=0;orthogonalLoop=1;jettySize=auto;html=1;entryX=0.5;entryY=1;entryDx=0;entryDy=0;fontColor=#000000;" edge="1" parent="1" source="NcvXT8SLPfawrKJ4mpWX-14" target="NcvXT8SLPfawrKJ4mpWX-8">
          <mxGeometry relative="1" as="geometry" />
        </mxCell>
        <mxCell id="NcvXT8SLPfawrKJ4mpWX-13" value="I2C" style="edgeLabel;html=1;align=center;verticalAlign=middle;resizable=0;points=[];fontColor=#000000;" vertex="1" connectable="0" parent="NcvXT8SLPfawrKJ4mpWX-12">
          <mxGeometry x="0.0414" y="-3" relative="1" as="geometry">
            <mxPoint x="-18" y="43" as="offset" />
          </mxGeometry>
        </mxCell>
        <mxCell id="NcvXT8SLPfawrKJ4mpWX-14" value="&lt;div&gt;Accelerometer&lt;/div&gt;" style="rounded=1;whiteSpace=wrap;html=1;fontColor=#000000;" vertex="1" parent="1">
          <mxGeometry x="545" y="488" width="120" height="60" as="geometry" />
        </mxCell>
        <mxCell id="NcvXT8SLPfawrKJ4mpWX-15" style="edgeStyle=orthogonalEdgeStyle;rounded=0;orthogonalLoop=1;jettySize=auto;html=1;fontColor=#000000;" edge="1" parent="1" source="NcvXT8SLPfawrKJ4mpWX-17">
          <mxGeometry relative="1" as="geometry">
            <Array as="points">
              <mxPoint x="765" y="428" />
              <mxPoint x="605" y="428" />
            </Array>
            <mxPoint x="605" y="368" as="targetPoint" />
          </mxGeometry>
        </mxCell>
        <mxCell id="NcvXT8SLPfawrKJ4mpWX-16" value="&lt;div&gt;I2C&lt;/div&gt;" style="edgeLabel;html=1;align=center;verticalAlign=middle;resizable=0;points=[];fontColor=#000000;" vertex="1" connectable="0" parent="NcvXT8SLPfawrKJ4mpWX-15">
          <mxGeometry x="-0.5559" y="2" relative="1" as="geometry">
            <mxPoint x="-25" y="-22" as="offset" />
          </mxGeometry>
        </mxCell>
        <mxCell id="NcvXT8SLPfawrKJ4mpWX-17" value="Thermometer" style="rounded=1;whiteSpace=wrap;html=1;fontColor=#000000;" vertex="1" parent="1">
          <mxGeometry x="705" y="488" width="120" height="60" as="geometry" />
        </mxCell>
        <mxCell id="NcvXT8SLPfawrKJ4mpWX-18" style="edgeStyle=orthogonalEdgeStyle;rounded=0;orthogonalLoop=1;jettySize=auto;html=1;entryX=0.5;entryY=1;entryDx=0;entryDy=0;fontColor=#000000;" edge="1" parent="1" target="NcvXT8SLPfawrKJ4mpWX-7">
          <mxGeometry relative="1" as="geometry">
            <mxPoint x="445" y="608" as="sourcePoint" />
            <mxPoint x="444.65999999999997" y="608" as="targetPoint" />
          </mxGeometry>
        </mxCell>
        <mxCell id="NcvXT8SLPfawrKJ4mpWX-19" style="edgeStyle=orthogonalEdgeStyle;rounded=0;orthogonalLoop=1;jettySize=auto;html=1;entryX=0.5;entryY=1;entryDx=0;entryDy=0;fontColor=#000000;" edge="1" parent="1" target="NcvXT8SLPfawrKJ4mpWX-14">
          <mxGeometry relative="1" as="geometry">
            <mxPoint x="605" y="608" as="sourcePoint" />
            <mxPoint x="615" y="558" as="targetPoint" />
          </mxGeometry>
        </mxCell>
        <mxCell id="NcvXT8SLPfawrKJ4mpWX-20" style="edgeStyle=orthogonalEdgeStyle;rounded=0;orthogonalLoop=1;jettySize=auto;html=1;fontColor=#000000;sourcePerimeterSpacing=0;entryX=0;entryY=0.5;entryDx=0;entryDy=0;" edge="1" parent="1" target="NcvXT8SLPfawrKJ4mpWX-11">
          <mxGeometry relative="1" as="geometry">
            <mxPoint x="355" y="428" as="sourcePoint" />
            <mxPoint x="465" y="358" as="targetPoint" />
            <Array as="points">
              <mxPoint x="385" y="428" />
              <mxPoint x="385" y="428" />
            </Array>
          </mxGeometry>
        </mxCell>
        <mxCell id="NcvXT8SLPfawrKJ4mpWX-21" value="" style="edgeStyle=orthogonalEdgeStyle;rounded=0;orthogonalLoop=1;jettySize=auto;html=1;fontColor=#000000;" edge="1" parent="1" source="NcvXT8SLPfawrKJ4mpWX-22" target="NcvXT8SLPfawrKJ4mpWX-8">
          <mxGeometry relative="1" as="geometry" />
        </mxCell>
        <mxCell id="NcvXT8SLPfawrKJ4mpWX-22" value="PC Power" style="rounded=1;whiteSpace=wrap;html=1;fontColor=#000000;" vertex="1" parent="1">
          <mxGeometry x="545" y="168" width="120" height="40" as="geometry" />
        </mxCell>
        <mxCell id="NcvXT8SLPfawrKJ4mpWX-23" value="" style="points=[[0.005,0.09,0],[0.08,0,0],[0.76,0.25,0],[1,0.92,0],[0.91,0.995,0],[0.57,0.995,0],[0.045,0.955,0],[0.005,0.43,0]];verticalLabelPosition=bottom;sketch=0;html=1;verticalAlign=top;aspect=fixed;align=center;pointerEvents=1;shape=mxgraph.cisco19.3g_4g_indicator;fillColor=#005073;strokeColor=none;flipH=0;" vertex="1" parent="1">
          <mxGeometry x="675" y="248" width="50" height="50" as="geometry" />
        </mxCell>
        <mxCell id="NcvXT8SLPfawrKJ4mpWX-24" value="" style="html=1;strokeWidth=1;shadow=0;dashed=0;shape=mxgraph.ios7.misc.bluetooth;fillColor=#007AFF;strokeColor=none;buttonText=;strokeColor2=#222222;fontColor=#222222;fontSize=8;verticalLabelPosition=bottom;verticalAlign=top;align=center;sketch=0;" vertex="1" parent="1">
          <mxGeometry x="725" y="248" width="15" height="15" as="geometry" />
        </mxCell>
      </root>
    </mxGraphModel>
  </diagram>
</mxfile>
